<?xml version="1.0" encoding="UTF-8" standalone="no"?><!DOCTYPE svg PUBLIC "-//W3C//DTD SVG 1.1//EN" "http://www.w3.org/Graphics/SVG/1.1/DTD/svg11.dtd"><!-- Generated by graphviz version 2.40.1 (20161225.0304)
 --><!-- Title: G Pages: 1 --><svg xmlns="http://www.w3.org/2000/svg" xmlns:xlink="http://www.w3.org/1999/xlink" width="365pt" height="252pt" viewBox="0.00 0.00 365.46 251.70">
<g id="graph0" class="graph" transform="scale(1 1) rotate(0) translate(4 247.6996)">
<title>G</title>
<polygon fill="#ffffff" stroke="transparent" points="-4,4 -4,-247.6996 361.4569,-247.6996 361.4569,4 -4,4"/>
<!-- E0 -->
<g id="node1" class="node">
<title>E0</title>
<ellipse fill="none" stroke="#000000" cx="52.8363" cy="-221.9351" rx="21.5313" ry="21.5313"/>
<text text-anchor="middle" x="52.8363" y="-217.7351" font-family="Times,serif" font-size="14.00" fill="#000000">E0</text>
</g>
<!-- H1 -->
<g id="node2" class="node">
<title>H1</title>
<ellipse fill="none" stroke="#000000" cx="22.8363" cy="-124.5344" rx="22.6738" ry="22.6738"/>
<text text-anchor="middle" x="22.8363" y="-120.3344" font-family="Times,serif" font-size="14.00" fill="#000000">H1</text>
</g>
<!-- E0&#45;&gt;H1 -->
<g id="edge1" class="edge">
<title>E0-&gt;H1</title>
<path fill="none" stroke="#000000" d="M38.5081,-205.2267C33.5757,-198.5019 28.6012,-190.3968 25.8363,-182.1707 23.2326,-174.4242 21.9835,-165.7632 21.4901,-157.5568"/>
<polygon fill="#000000" stroke="#000000" points="24.9876,-157.4122 21.2242,-147.5083 17.99,-157.5974 24.9876,-157.4122"/>
<text text-anchor="middle" x="29.3363" y="-169.5707" font-family="Times,serif" font-size="14.00" fill="#000000">0</text>
</g>
<!-- E0&#45;&gt;H1 -->
<g id="edge2" class="edge">
<title>E0-&gt;H1</title>
<path fill="none" stroke="#000000" d="M46.3268,-200.8006C42.3223,-187.7993 37.114,-170.8896 32.6195,-156.2974"/>
<polygon fill="#000000" stroke="#000000" points="35.9342,-155.1685 29.6456,-146.6418 29.2443,-157.2291 35.9342,-155.1685"/>
<text text-anchor="middle" x="44.3363" y="-169.5707" font-family="Times,serif" font-size="14.00" fill="#000000">1</text>
</g>
<!-- H2 -->
<g id="node3" class="node">
<title>H2</title>
<ellipse fill="none" stroke="#000000" cx="86.8363" cy="-124.5344" rx="22.6738" ry="22.6738"/>
<text text-anchor="middle" x="86.8363" y="-120.3344" font-family="Times,serif" font-size="14.00" fill="#000000">H2</text>
</g>
<!-- E0&#45;&gt;H2 -->
<g id="edge3" class="edge">
<title>E0-&gt;H2</title>
<path fill="none" stroke="#000000" d="M60.0469,-201.279C64.6399,-188.1212 70.6791,-170.8203 75.8608,-155.9764"/>
<polygon fill="#000000" stroke="#000000" points="79.2914,-156.7683 79.2827,-146.1735 72.6825,-154.4613 79.2914,-156.7683"/>
<text text-anchor="middle" x="76.3363" y="-169.5707" font-family="Times,serif" font-size="14.00" fill="#000000">2</text>
</g>
<!-- H -->
<g id="node4" class="node">
<title>H</title>
<ellipse fill="none" stroke="#000000" cx="163.8363" cy="-124.5344" rx="18.0157" ry="18.0157"/>
<text text-anchor="middle" x="163.8363" y="-120.3344" font-family="Times,serif" font-size="14.00" fill="#000000">H</text>
</g>
<!-- H1&#45;&gt;H -->
<g id="edge4" class="edge">
<title>H1-&gt;H</title>
<path fill="none" stroke="#000000" d="M40.036,-139.5897C55.2601,-151.7886 78.701,-167.9379 102.506,-174.1707 110.5292,-176.2714 113.6293,-177.6308 121.1666,-174.1707 132.669,-168.8904 142.2393,-158.8096 149.3816,-149.1048"/>
<polygon fill="#000000" stroke="#000000" points="152.2968,-151.0419 155.0206,-140.8032 146.5064,-147.1086 152.2968,-151.0419"/>
<text text-anchor="middle" x="111.8363" y="-169.5707" font-family="Times,serif" font-size="14.00" fill="#000000">0-9</text>
</g>
<!-- H2&#45;&gt;H -->
<g id="edge5" class="edge">
<title>H2-&gt;H</title>
<path fill="none" stroke="#000000" d="M109.9389,-124.5344C117.9126,-124.5344 126.9413,-124.5344 135.2977,-124.5344"/>
<polygon fill="#000000" stroke="#000000" points="135.3929,-128.0345 145.3929,-124.5344 135.3929,-121.0345 135.3929,-128.0345"/>
<text text-anchor="middle" x="127.7506" y="-131.7344" font-family="Times,serif" font-size="14.00" fill="#000000">0-3</text>
</g>
<!-- M1 -->
<g id="node5" class="node">
<title>M1</title>
<ellipse fill="none" stroke="#000000" cx="163.8363" cy="-24.449" rx="24.3982" ry="24.3982"/>
<text text-anchor="middle" x="163.8363" y="-20.249" font-family="Times,serif" font-size="14.00" fill="#000000">M1</text>
</g>
<!-- H&#45;&gt;M1 -->
<g id="edge6" class="edge">
<title>H-&gt;M1</title>
<path fill="none" stroke="#000000" d="M163.8363,-106.1772C163.8363,-93.1552 163.8363,-75.2706 163.8363,-59.5513"/>
<polygon fill="#000000" stroke="#000000" points="167.3364,-59.1009 163.8363,-49.101 160.3364,-59.101 167.3364,-59.1009"/>
<text text-anchor="middle" x="165.7816" y="-71.0981" font-family="Times,serif" font-size="14.00" fill="#000000">:</text>
</g>
<!-- M2 -->
<g id="node6" class="node">
<title>M2</title>
<ellipse fill="none" stroke="#000000" cx="248.8363" cy="-24.449" rx="24.3982" ry="24.3982"/>
<text text-anchor="middle" x="248.8363" y="-20.249" font-family="Times,serif" font-size="14.00" fill="#000000">M2</text>
</g>
<!-- M1&#45;&gt;M2 -->
<g id="edge7" class="edge">
<title>M1-&gt;M2</title>
<path fill="none" stroke="#000000" d="M188.4219,-24.449C196.4391,-24.449 205.4975,-24.449 214.1142,-24.449"/>
<polygon fill="#000000" stroke="#000000" points="214.306,-27.9489 224.3061,-24.449 214.3061,-20.9489 214.306,-27.9489"/>
<text text-anchor="middle" x="206.3363" y="-31.649" font-family="Times,serif" font-size="14.00" fill="#000000">0-5</text>
</g>
<!-- M -->
<g id="node7" class="node">
<title>M</title>
<ellipse fill="none" stroke="#000000" cx="333.8363" cy="-24.449" rx="19.7212" ry="19.7212"/>
<ellipse fill="none" stroke="#000000" cx="333.8363" cy="-24.449" rx="23.7418" ry="23.7418"/>
<text text-anchor="middle" x="333.8363" y="-20.249" font-family="Times,serif" font-size="14.00" fill="#000000">M</text>
</g>
<!-- M2&#45;&gt;M -->
<g id="edge8" class="edge">
<title>M2-&gt;M</title>
<path fill="none" stroke="#000000" d="M273.4219,-24.449C281.7387,-24.449 291.1758,-24.449 300.0781,-24.449"/>
<polygon fill="#000000" stroke="#000000" points="300.1838,-27.9491 310.1838,-24.449 300.1838,-20.9491 300.1838,-27.9491"/>
<text text-anchor="middle" x="291.7506" y="-31.649" font-family="Times,serif" font-size="14.00" fill="#000000">0-9</text>
</g>
</g>
</svg>