<?xml version="1.0" encoding="UTF-8" standalone="no"?><!DOCTYPE svg PUBLIC "-//W3C//DTD SVG 1.1//EN" "http://www.w3.org/Graphics/SVG/1.1/DTD/svg11.dtd"><!-- Generated by graphviz version 2.40.1 (20161225.0304)
 --><!-- Title: G Pages: 1 --><svg xmlns="http://www.w3.org/2000/svg" xmlns:xlink="http://www.w3.org/1999/xlink" width="135pt" height="349pt" viewBox="0.00 0.00 134.53 348.52">
<g id="graph0" class="graph" transform="scale(1 1) rotate(0) translate(4 344.5153)">
<title>G</title>
<polygon fill="#ffffff" stroke="transparent" points="-4,4 -4,-344.5153 130.5288,-344.5153 130.5288,4 -4,4"/>
<!-- E1 -->
<g id="node1" class="node">
<title>E1</title>
<ellipse fill="none" stroke="#000000" cx="48.7644" cy="-318.7509" rx="21.5313" ry="21.5313"/>
<text text-anchor="middle" x="48.7644" y="-314.5509" font-family="Times,serif" font-size="14.00" fill="#000000">E1</text>
</g>
<!-- E2 -->
<g id="node2" class="node">
<title>E2</title>
<ellipse fill="none" stroke="#000000" cx="21.7644" cy="-222.422" rx="21.5313" ry="21.5313"/>
<text text-anchor="middle" x="21.7644" y="-218.222" font-family="Times,serif" font-size="14.00" fill="#000000">E2</text>
</g>
<!-- E1&#45;&gt;E2 -->
<g id="edge1" class="edge">
<title>E1-&gt;E2</title>
<path fill="none" stroke="#000000" d="M37.0399,-299.9605C33.5382,-293.5302 30.0551,-286.1479 27.8738,-278.9864 25.486,-271.1469 24.0042,-262.4475 23.092,-254.269"/>
<polygon fill="#000000" stroke="#000000" points="26.5773,-253.9475 22.2158,-244.2921 19.6042,-254.5599 26.5773,-253.9475"/>
<text text-anchor="middle" x="30.7097" y="-266.3864" font-family="Times,serif" font-size="14.00" fill="#000000">;</text>
</g>
<!-- E1&#45;&gt;E2 -->
<g id="edge2" class="edge">
<title>E1-&gt;E2</title>
<path fill="none" stroke="#000000" d="M42.7722,-297.3724C39.1468,-284.4377 34.4621,-267.7239 30.4368,-253.3629"/>
<polygon fill="#000000" stroke="#000000" points="33.716,-252.0936 27.6469,-243.4093 26.9758,-253.9829 33.716,-252.0936"/>
<text text-anchor="middle" x="40.0947" y="-266.3864" font-family="Times,serif" font-size="14.00" fill="#000000">]</text>
</g>
<!-- E5 -->
<g id="node5" class="node">
<title>E5</title>
<ellipse fill="none" stroke="#000000" cx="83.7644" cy="-222.422" rx="21.5313" ry="21.5313"/>
<text text-anchor="middle" x="83.7644" y="-218.222" font-family="Times,serif" font-size="14.00" fill="#000000">E5</text>
</g>
<!-- E1&#45;&gt;E5 -->
<g id="edge3" class="edge">
<title>E1-&gt;E5</title>
<path fill="none" stroke="#000000" d="M56.3589,-297.8489C61.1615,-284.631 67.4481,-267.3285 72.7887,-252.6299"/>
<polygon fill="#000000" stroke="#000000" points="76.1796,-253.5463 76.305,-242.9522 69.6004,-251.1558 76.1796,-253.5463"/>
<text text-anchor="middle" x="70.7097" y="-266.3864" font-family="Times,serif" font-size="14.00" fill="#000000">:</text>
</g>
<!-- E3 -->
<g id="node3" class="node">
<title>E3</title>
<ellipse fill="none" stroke="#000000" cx="42.7644" cy="-126.0932" rx="21.5313" ry="21.5313"/>
<text text-anchor="middle" x="42.7644" y="-121.8932" font-family="Times,serif" font-size="14.00" fill="#000000">E3</text>
</g>
<!-- E2&#45;&gt;E3 -->
<g id="edge4" class="edge">
<title>E2-&gt;E3</title>
<path fill="none" stroke="#000000" d="M22.4042,-200.4305C23.0747,-189.8617 24.4206,-177.0821 27.1038,-165.8576 27.9221,-162.4344 28.9749,-158.9144 30.1472,-155.4511"/>
<polygon fill="#000000" stroke="#000000" points="33.4686,-156.561 33.6718,-145.9681 26.9071,-154.1222 33.4686,-156.561"/>
<text text-anchor="middle" x="30.0947" y="-170.0576" font-family="Times,serif" font-size="14.00" fill="#000000">-</text>
</g>
<!-- E4 -->
<g id="node4" class="node">
<title>E4</title>
<ellipse fill="none" stroke="#000000" cx="100.7644" cy="-25.7644" rx="21.5672" ry="21.5672"/>
<ellipse fill="none" stroke="#000000" cx="100.7644" cy="-25.7644" rx="25.531" ry="25.531"/>
<text text-anchor="middle" x="100.7644" y="-21.5644" font-family="Times,serif" font-size="14.00" fill="#000000">E4</text>
</g>
<!-- E3&#45;&gt;E4 -->
<g id="edge5" class="edge">
<title>E3-&gt;E4</title>
<path fill="none" stroke="#000000" d="M53.6738,-107.2221C61.8139,-93.1413 73.1202,-73.5835 82.6139,-57.1612"/>
<polygon fill="#000000" stroke="#000000" points="85.6953,-58.8242 87.6701,-48.415 79.6351,-55.3208 85.6953,-58.8242"/>
<text text-anchor="middle" x="78.0947" y="-73.7288" font-family="Times,serif" font-size="14.00" fill="#000000">)</text>
</g>
<!-- E5&#45;&gt;E3 -->
<g id="edge6" class="edge">
<title>E5-&gt;E3</title>
<path fill="none" stroke="#000000" d="M69.2647,-205.5615C64.116,-198.8181 58.7098,-190.7399 55.1038,-182.6576 51.6772,-174.9774 49.1724,-166.275 47.3528,-158.0391"/>
<polygon fill="#000000" stroke="#000000" points="50.7393,-157.1177 45.3966,-147.9686 43.8677,-158.4525 50.7393,-157.1177"/>
<text text-anchor="middle" x="58.0947" y="-170.0576" font-family="Times,serif" font-size="14.00" fill="#000000">-</text>
</g>
<!-- E5&#45;&gt;E3 -->
<g id="edge7" class="edge">
<title>E5-&gt;E3</title>
<path fill="none" stroke="#000000" d="M75.0694,-201.9932C69.3232,-188.4927 61.6999,-170.5819 55.3018,-155.5497"/>
<polygon fill="#000000" stroke="#000000" points="58.4431,-153.9928 51.3063,-146.1623 52.0022,-156.7343 58.4431,-153.9928"/>
<text text-anchor="middle" x="69.7117" y="-170.0576" font-family="Times,serif" font-size="14.00" fill="#000000">=</text>
</g>
<!-- E5&#45;&gt;E4 -->
<g id="edge8" class="edge">
<title>E5-&gt;E4</title>
<path fill="none" stroke="#000000" d="M85.6487,-200.6248C88.5513,-167.0462 94.1478,-102.3059 97.6565,-61.7172"/>
<polygon fill="#000000" stroke="#000000" points="101.1478,-61.9674 98.5221,-51.7031 94.1738,-61.3645 101.1478,-61.9674"/>
<text text-anchor="middle" x="96.0947" y="-121.8932" font-family="Times,serif" font-size="14.00" fill="#000000">)</text>
</g>
<!-- E5&#45;&gt;E4 -->
<g id="edge9" class="edge">
<title>E5-&gt;E4</title>
<path fill="none" stroke="#000000" d="M94.116,-203.0874C97.0725,-196.7451 99.9748,-189.5524 101.7644,-182.6576 114.4283,-133.8694 114.8672,-119.6749 109.7644,-69.5288 109.4869,-66.8013 109.1144,-63.9927 108.6785,-61.1774"/>
<polygon fill="#000000" stroke="#000000" points="112.0802,-60.3158 106.8786,-51.0857 105.1889,-61.5449 112.0802,-60.3158"/>
<text text-anchor="middle" x="115.0947" y="-121.8932" font-family="Times,serif" font-size="14.00" fill="#000000">(</text>
</g>
</g>
</svg>