<?xml version="1.0" encoding="UTF-8" standalone="no"?><!DOCTYPE svg PUBLIC "-//W3C//DTD SVG 1.1//EN" "http://www.w3.org/Graphics/SVG/1.1/DTD/svg11.dtd"><!-- Generated by graphviz version 2.40.1 (20161225.0304)
 --><!-- Title: automate Pages: 1 --><svg xmlns="http://www.w3.org/2000/svg" xmlns:xlink="http://www.w3.org/1999/xlink" width="644pt" height="94pt" viewBox="0.00 0.00 643.61 94.33">
<g id="graph0" class="graph" transform="scale(1 1) rotate(0) translate(4 90.3288)">
<title>automate</title>
<polygon fill="#ffffff" stroke="transparent" points="-4,4 -4,-90.3288 639.61,-90.3288 639.61,4 -4,4"/>
<!-- E0 -->
<g id="node1" class="node">
<title>E0</title>
<ellipse fill="none" stroke="#000000" cx="21.7644" cy="-25.7644" rx="21.5313" ry="21.5313"/>
<text text-anchor="middle" x="21.7644" y="-21.5644" font-family="Times,serif" font-size="14.00" fill="#000000">E0</text>
</g>
<!-- E1 -->
<g id="node2" class="node">
<title>E1</title>
<ellipse fill="none" stroke="#000000" cx="157.2386" cy="-25.7644" rx="21.5313" ry="21.5313"/>
<text text-anchor="middle" x="157.2386" y="-21.5644" font-family="Times,serif" font-size="14.00" fill="#000000">E1</text>
</g>
<!-- E0&#45;&gt;E1 -->
<g id="edge1" class="edge">
<title>E0-&gt;E1</title>
<path fill="none" stroke="#000000" d="M43.5307,-25.7644C65.5206,-25.7644 99.7491,-25.7644 124.9102,-25.7644"/>
<polygon fill="#000000" stroke="#000000" points="125.0763,-29.2645 135.0763,-25.7644 125.0763,-22.2645 125.0763,-29.2645"/>
<text text-anchor="middle" x="89.5015" y="-29.9644" font-family="Times,serif" font-size="14.00" fill="#000000">caractère</text>
</g>
<!-- E1&#45;&gt;E1 -->
<g id="edge2" class="edge">
<title>E1-&gt;E1</title>
<path fill="none" stroke="#000000" d="M148.8684,-46.224C147.7103,-56.4275 150.5003,-65.5288 157.2386,-65.5288 161.5553,-65.5288 164.2517,-61.7936 165.3277,-56.4263"/>
<polygon fill="#000000" stroke="#000000" points="168.832,-56.3166 165.6088,-46.224 161.8346,-56.1238 168.832,-56.3166"/>
<text text-anchor="middle" x="157.2386" y="-69.7288" font-family="Times,serif" font-size="14.00" fill="#000000">caractère</text>
</g>
<!-- E2 -->
<g id="node3" class="node">
<title>E2</title>
<ellipse fill="none" stroke="#000000" cx="249.66" cy="-25.7644" rx="21.5313" ry="21.5313"/>
<text text-anchor="middle" x="249.66" y="-21.5644" font-family="Times,serif" font-size="14.00" fill="#000000">E2</text>
</g>
<!-- E1&#45;&gt;E2 -->
<g id="edge3" class="edge">
<title>E1-&gt;E2</title>
<path fill="none" stroke="#000000" d="M179.1412,-25.7644C190.5677,-25.7644 204.7663,-25.7644 217.4216,-25.7644"/>
<polygon fill="#000000" stroke="#000000" points="217.5944,-29.2645 227.5944,-25.7644 217.5943,-22.2645 217.5944,-29.2645"/>
<text text-anchor="middle" x="203.4493" y="-29.9644" font-family="Times,serif" font-size="14.00" fill="#000000">@</text>
</g>
<!-- E3 -->
<g id="node4" class="node">
<title>E3</title>
<ellipse fill="none" stroke="#000000" cx="385.1343" cy="-25.7644" rx="21.5313" ry="21.5313"/>
<text text-anchor="middle" x="385.1343" y="-21.5644" font-family="Times,serif" font-size="14.00" fill="#000000">E3</text>
</g>
<!-- E2&#45;&gt;E3 -->
<g id="edge4" class="edge">
<title>E2-&gt;E3</title>
<path fill="none" stroke="#000000" d="M271.4263,-25.7644C293.4163,-25.7644 327.6447,-25.7644 352.8059,-25.7644"/>
<polygon fill="#000000" stroke="#000000" points="352.972,-29.2645 362.9719,-25.7644 352.9719,-22.2645 352.972,-29.2645"/>
<text text-anchor="middle" x="317.3971" y="-29.9644" font-family="Times,serif" font-size="14.00" fill="#000000">caractère</text>
</g>
<!-- E3&#45;&gt;E3 -->
<g id="edge5" class="edge">
<title>E3-&gt;E3</title>
<path fill="none" stroke="#000000" d="M377.8174,-46.6315C376.914,-56.6685 379.353,-65.5288 385.1343,-65.5288 388.8379,-65.5288 391.1698,-61.8926 392.1301,-56.6401"/>
<polygon fill="#000000" stroke="#000000" points="395.6286,-56.7386 392.4511,-46.6315 388.6322,-56.5141 395.6286,-56.7386"/>
<text text-anchor="middle" x="385.1343" y="-69.7288" font-family="Times,serif" font-size="14.00" fill="#000000">caractère</text>
</g>
<!-- E4 -->
<g id="node5" class="node">
<title>E4</title>
<ellipse fill="none" stroke="#000000" cx="468.1631" cy="-25.7644" rx="21.5313" ry="21.5313"/>
<text text-anchor="middle" x="468.1631" y="-21.5644" font-family="Times,serif" font-size="14.00" fill="#000000">E4</text>
</g>
<!-- E3&#45;&gt;E4 -->
<g id="edge6" class="edge">
<title>E3-&gt;E4</title>
<path fill="none" stroke="#000000" d="M406.9491,-25.7644C415.8408,-25.7644 426.302,-25.7644 436.0366,-25.7644"/>
<polygon fill="#000000" stroke="#000000" points="436.2057,-29.2645 446.2056,-25.7644 436.2056,-22.2645 436.2057,-29.2645"/>
<text text-anchor="middle" x="426.6487" y="-29.9644" font-family="Times,serif" font-size="14.00" fill="#000000">.</text>
</g>
<!-- E5 -->
<g id="node6" class="node">
<title>E5</title>
<ellipse fill="none" stroke="#000000" cx="607.6373" cy="-25.7644" rx="21.5672" ry="21.5672"/>
<ellipse fill="none" stroke="#000000" cx="607.6373" cy="-25.7644" rx="25.531" ry="25.531"/>
<text text-anchor="middle" x="607.6373" y="-21.5644" font-family="Times,serif" font-size="14.00" fill="#000000">E5</text>
</g>
<!-- E4&#45;&gt;E5 -->
<g id="edge7" class="edge">
<title>E4-&gt;E5</title>
<path fill="none" stroke="#000000" d="M489.9559,-25.7644C511.7734,-25.7644 545.7253,-25.7644 571.5648,-25.7644"/>
<polygon fill="#000000" stroke="#000000" points="571.7302,-29.2645 581.7301,-25.7644 571.7301,-22.2645 571.7302,-29.2645"/>
<text text-anchor="middle" x="535.9002" y="-29.9644" font-family="Times,serif" font-size="14.00" fill="#000000">caractère</text>
</g>
<!-- E5&#45;&gt;E5 -->
<g id="edge8" class="edge">
<title>E5-&gt;E5</title>
<path fill="none" stroke="#000000" d="M594.9,-48.2821C593.1376,-59.5119 597.3834,-69.5288 607.6373,-69.5288 614.5266,-69.5288 618.7038,-65.007 620.1688,-58.6337"/>
<polygon fill="#000000" stroke="#000000" points="623.675,-58.3497 620.3746,-48.2821 616.6764,-58.2105 623.675,-58.3497"/>
<text text-anchor="middle" x="607.6373" y="-73.7288" font-family="Times,serif" font-size="14.00" fill="#000000">caractère</text>
</g>
</g>
</svg>